<svg version="1.0" xmlns="http://www.w3.org/2000/svg" viewBox="0 0 60 62"><g fill="#e20626"><path d="M19.6 4.2c.8 3.8-1.2 9.1-5.3 14C9.2 24.3 7.6 28.5 9 32.3c1.6 4.8 3.9 6.7 8 6.7 5.8 0 7.1-2.2 6.8-11.6-.2-5.1.3-9 1.1-11 1.8-3.9.9-7.5-2.9-11.7l-3-3.2.6 2.7zM30.3 17.2c-3 3.8-3.4 5.8-2.2 11.7 1.1 5.3 1.1 6.4-.5 9.9-2.2 5-1.2 9.1 2.8 11 2.3 1.2 3.2 1.1 6.3-.5 6.8-3.3 6.9-10.8.2-19.3-4.6-5.8-6.2-9.5-5.4-12.1.7-2.2.2-2.5-1.2-.7z"/><path d="M7 41.9C7 52 17 60.1 27.5 58.5c2.4-.3 5.4-1.5 6.7-2.5l2.3-1.9-4.8-.1c-3.9 0-5.3-.5-7.2-2.6-1.4-1.5-2.5-3.7-2.5-4.9 0-2-.6-2.3-5-2.7-3.4-.4-5.9-1.3-7.5-2.8L7 38.7v3.2z"/></g></svg>