<svg viewBox="20 0 40 80" xmlns="http://www.w3.org/2000/svg" width="30" height="30" class="css-avap26 e270nis4"><path fill="#4f0599" d="M29.24 58.4H41.8a5.71 5.71 0 0 0 5-5.39V34.88a4.35 4.35 0 0 0-8.7 0v11.51a3.27 3.27 0 0 1-3.25 3.25h-5.67A4.37 4.37 0 0 0 24.83 54v.06a4.38 4.38 0 0 0 4.41 4.34zm-7.53-13.29a4.6 4.6 0 0 1-4.6-4.6V22.38a6 6 0 0 1 5.24-5.64h12.59a4.67 4.67 0 0 1 4.66 4.59A4.62 4.62 0 0 1 35 26h-5.7a3 3 0 0 0-3 3v11.51a4.6 4.6 0 0 1-4.59 4.6z"/><path fill="#4f0599" d="M34.94 17H22.38a5.7 5.7 0 0 0-5 5.39v18.13a4.35 4.35 0 1 0 8.69 0V29a3.23 3.23 0 0 1 3.25-3.24H35a4.37 4.37 0 0 0 4.35-4.35v-.06A4.43 4.43 0 0 0 34.94 17zm1.98-8.18A18.11 18.11 0 0 1 55.05 27v34.87a5.67 5.67 0 0 1-4.8 4.63H27.07A18.12 18.12 0 0 1 8.94 48.37V14.46a5.66 5.66 0 0 1 5.58-5.68M37-.47H14.17A14.5 14.5 0 0 0-.28 14v34.54A27.24 27.24 0 0 0 27 75.79h24.14A14.37 14.37 0 0 0 64.27 63V26.73A27.22 27.22 0 0 0 37-.47z"/></svg>