<svg class="svg-logo" xmlns="http://www.w3.org/2000/svg" width="10" height="36" viewBox="0 0 45 36"><g transform="translate(-10 -10)" fill="#007bfc">--&gt;<path class="svg-logo__shape-1" d="M23.473 9.97A2.076 2.076 0 0 0 21.715 9H11.077a2.076 2.076 0 0 0-1.757 3.185l5.237 8.308 14.153-2.215-5.237-8.308Z"/><path class="svg-logo__shape-2" d="M25.655 13.431a2.077 2.077 0 0 0-1.758-.97H13.259a2.077 2.077 0 0 0-1.757 3.185l3.055 4.846 14.152-2.215-3.054-4.846Z"/><path class="svg-logo__shape-3" d="M14.557 20.493a2.077 2.077 0 0 1 1.757-3.185h10.639c.74 0 1.389.387 1.756.97l9.521 15.101c.203.32.319.7.319 1.107 0 .408-.116.787-.319 1.107l-5.32 8.438a2.076 2.076 0 0 1-3.514 0L14.557 20.493zM41.385 25.015a2.076 2.076 0 0 0 3.514 0l5.32-8.438c.203-.321.32-.701.32-1.108a2.06 2.06 0 0 0-.32-1.107l-2.77-4.392A2.073 2.073 0 0 0 45.691 9H35.055a2.078 2.078 0 0 0-1.758 3.185l8.088 12.83z"/></g></svg>