<?xml version="1.0" standalone="no"?>
<!DOCTYPE svg PUBLIC "-//W3C//DTD SVG 20010904//EN"
 "http://www.w3.org/TR/2001/REC-SVG-20010904/DTD/svg10.dtd">
<svg version="1.0" xmlns="http://www.w3.org/2000/svg" viewBox="0 0 60 62"
 preserveAspectRatio="xMidYMid meet">

<g transform="translate(0.000000,62.000000) scale(0.100000,-0.100000)"
fill="#e20626" stroke="none">
<path d="M196 578 c8 -38 -12 -91 -53 -140 -51 -61 -67 -103 -53 -141 16 -48
39 -67 80 -67 58 0 71 22 68 116 -2 51 3 90 11 110 18 39 9 75 -29 117 l-30
32 6 -27z"/>
<path d="M303 448 c-30 -38 -34 -58 -22 -117 11 -53 11 -64 -5 -99 -22 -50
-12 -91 28 -110 23 -12 32 -11 63 5 68 33 69 108 2 193 -46 58 -62 95 -54 121
7 22 2 25 -12 7z"/>
<path d="M70 201 c0 -101 100 -182 205 -166 24 3 54 15 67 25 l23 19 -48 1
c-39 0 -53 5 -72 26 -14 15 -25 37 -25 49 0 20 -6 23 -50 27 -34 4 -59 13 -75
28 l-25 23 0 -32z"/>
</g>
</svg>
